<svg width="323" height="323" viewBox="0 0 323 323" fill="none" xmlns="http://www.w3.org/2000/svg">
<g filter="url(#filter0_d_3_754)">
<circle cx="161.5" cy="161.5" r="144.5" fill="#EEEEEE" fill-opacity="0.09" shape-rendering="crispEdges"/>
</g>
<circle cx="161" cy="162" r="98" stroke="#6E6E6E" stroke-width="22"/>
<mask id="path-3-inside-1_3_754" fill="white">
<path d="M161 62.54C161 59.2687 161 57.6331 161.704 56.3111C162.314 55.1642 163.458 54.1162 164.654 53.6082C166.033 53.0227 167.531 53.1542 170.528 53.4172C188.725 55.0138 206.284 61.1647 221.557 71.3698C239.482 83.3469 253.453 100.37 261.703 120.288C269.953 140.205 272.111 162.121 267.906 183.265C263.7 204.409 253.319 223.831 238.075 239.075C222.831 254.319 203.409 264.7 182.265 268.906C161.121 273.111 139.205 270.953 119.288 262.703C99.3704 254.453 82.3469 240.482 70.3698 222.557C60.1647 207.284 54.0138 189.725 52.4172 171.528C52.1542 168.531 52.0227 167.033 52.6082 165.654C53.1162 164.458 54.1642 163.314 55.3111 162.704C56.6331 162 58.2687 162 61.54 162H63.8355C67.1371 162 68.7879 162 69.9818 162.549C71.1621 163.093 71.9513 163.8 72.6194 164.914C73.2953 166.042 73.495 167.868 73.8943 171.521C75.4205 185.484 80.2877 198.925 88.1429 210.682C97.7712 225.091 111.456 236.322 127.468 242.954C143.479 249.587 161.097 251.322 178.095 247.941C195.092 244.56 210.705 236.214 222.96 223.96C235.214 211.705 243.56 196.092 246.941 179.095C250.322 162.097 248.587 144.479 241.954 128.468C235.322 112.456 224.091 98.7712 209.682 89.1429C197.925 81.2877 184.484 76.4205 170.521 74.8943C166.868 74.495 165.042 74.2953 163.914 73.6194C162.8 72.9513 162.093 72.1621 161.549 70.9818C161 69.7879 161 68.1371 161 64.8355V62.54Z"/>
</mask>
<path d="M161 62.54C161 59.2687 161 57.6331 161.704 56.3111C162.314 55.1642 163.458 54.1162 164.654 53.6082C166.033 53.0227 167.531 53.1542 170.528 53.4172C188.725 55.0138 206.284 61.1647 221.557 71.3698C239.482 83.3469 253.453 100.37 261.703 120.288C269.953 140.205 272.111 162.121 267.906 183.265C263.7 204.409 253.319 223.831 238.075 239.075C222.831 254.319 203.409 264.7 182.265 268.906C161.121 273.111 139.205 270.953 119.288 262.703C99.3704 254.453 82.3469 240.482 70.3698 222.557C60.1647 207.284 54.0138 189.725 52.4172 171.528C52.1542 168.531 52.0227 167.033 52.6082 165.654C53.1162 164.458 54.1642 163.314 55.3111 162.704C56.6331 162 58.2687 162 61.54 162H63.8355C67.1371 162 68.7879 162 69.9818 162.549C71.1621 163.093 71.9513 163.8 72.6194 164.914C73.2953 166.042 73.495 167.868 73.8943 171.521C75.4205 185.484 80.2877 198.925 88.1429 210.682C97.7712 225.091 111.456 236.322 127.468 242.954C143.479 249.587 161.097 251.322 178.095 247.941C195.092 244.56 210.705 236.214 222.96 223.96C235.214 211.705 243.56 196.092 246.941 179.095C250.322 162.097 248.587 144.479 241.954 128.468C235.322 112.456 224.091 98.7712 209.682 89.1429C197.925 81.2877 184.484 76.4205 170.521 74.8943C166.868 74.495 165.042 74.2953 163.914 73.6194C162.8 72.9513 162.093 72.1621 161.549 70.9818C161 69.7879 161 68.1371 161 64.8355V62.54Z" stroke="white" stroke-width="44" mask="url(#path-3-inside-1_3_754)"/>
<path d="M101.41 148.706C101.617 144.573 103.063 141.39 105.75 139.158C108.478 136.885 112.053 135.748 116.476 135.748C119.493 135.748 122.077 136.285 124.226 137.36C126.375 138.393 127.987 139.819 129.062 141.638C130.178 143.415 130.736 145.441 130.736 147.714C130.736 150.318 130.054 152.529 128.69 154.348C127.367 156.125 125.776 157.324 123.916 157.944V158.192C126.313 158.936 128.173 160.259 129.496 162.16C130.86 164.061 131.542 166.5 131.542 169.476C131.542 171.956 130.963 174.167 129.806 176.11C128.69 178.053 127.016 179.582 124.784 180.698C122.593 181.773 119.948 182.31 116.848 182.31C112.177 182.31 108.375 181.132 105.44 178.776C102.505 176.42 100.955 172.948 100.79 168.36H109.222C109.305 170.385 109.987 172.018 111.268 173.258C112.591 174.457 114.389 175.056 116.662 175.056C118.77 175.056 120.382 174.477 121.498 173.32C122.655 172.121 123.234 170.592 123.234 168.732C123.234 166.252 122.449 164.475 120.878 163.4C119.307 162.325 116.869 161.788 113.562 161.788H111.764V154.658H113.562C119.431 154.658 122.366 152.695 122.366 148.768C122.366 146.991 121.829 145.606 120.754 144.614C119.721 143.622 118.212 143.126 116.228 143.126C114.285 143.126 112.777 143.663 111.702 144.738C110.669 145.771 110.069 147.094 109.904 148.706H101.41ZM138.525 148.706C138.732 144.573 140.179 141.39 142.865 139.158C145.593 136.885 149.169 135.748 153.591 135.748C156.609 135.748 159.192 136.285 161.341 137.36C163.491 138.393 165.103 139.819 166.177 141.638C167.293 143.415 167.851 145.441 167.851 147.714C167.851 150.318 167.169 152.529 165.805 154.348C164.483 156.125 162.891 157.324 161.031 157.944V158.192C163.429 158.936 165.289 160.259 166.611 162.16C167.975 164.061 168.657 166.5 168.657 169.476C168.657 171.956 168.079 174.167 166.921 176.11C165.805 178.053 164.131 179.582 161.899 180.698C159.709 181.773 157.063 182.31 153.963 182.31C149.293 182.31 145.49 181.132 142.555 178.776C139.621 176.42 138.071 172.948 137.905 168.36H146.337C146.42 170.385 147.102 172.018 148.383 173.258C149.706 174.457 151.504 175.056 153.777 175.056C155.885 175.056 157.497 174.477 158.613 173.32C159.771 172.121 160.349 170.592 160.349 168.732C160.349 166.252 159.564 164.475 157.993 163.4C156.423 162.325 153.984 161.788 150.677 161.788H148.879V154.658H150.677C156.547 154.658 159.481 152.695 159.481 148.768C159.481 146.991 158.944 145.606 157.869 144.614C156.836 143.622 155.327 143.126 153.343 143.126C151.401 143.126 149.892 143.663 148.817 144.738C147.784 145.771 147.185 147.094 147.019 148.706H138.525ZM180.352 182.434C178.782 182.434 177.48 181.959 176.446 181.008C175.454 180.016 174.958 178.797 174.958 177.35C174.958 175.903 175.454 174.705 176.446 173.754C177.48 172.762 178.782 172.266 180.352 172.266C181.882 172.266 183.142 172.762 184.134 173.754C185.126 174.705 185.622 175.903 185.622 177.35C185.622 178.797 185.126 180.016 184.134 181.008C183.142 181.959 181.882 182.434 180.352 182.434ZM191.746 148.706C191.953 144.573 193.399 141.39 196.086 139.158C198.814 136.885 202.389 135.748 206.812 135.748C209.829 135.748 212.413 136.285 214.562 137.36C216.711 138.393 218.323 139.819 219.398 141.638C220.514 143.415 221.072 145.441 221.072 147.714C221.072 150.318 220.39 152.529 219.026 154.348C217.703 156.125 216.112 157.324 214.252 157.944V158.192C216.649 158.936 218.509 160.259 219.832 162.16C221.196 164.061 221.878 166.5 221.878 169.476C221.878 171.956 221.299 174.167 220.142 176.11C219.026 178.053 217.352 179.582 215.12 180.698C212.929 181.773 210.284 182.31 207.184 182.31C202.513 182.31 198.711 181.132 195.776 178.776C192.841 176.42 191.291 172.948 191.126 168.36H199.558C199.641 170.385 200.323 172.018 201.604 173.258C202.927 174.457 204.725 175.056 206.998 175.056C209.106 175.056 210.718 174.477 211.834 173.32C212.991 172.121 213.57 170.592 213.57 168.732C213.57 166.252 212.785 164.475 211.214 163.4C209.643 162.325 207.205 161.788 203.898 161.788H202.1V154.658H203.898C209.767 154.658 212.702 152.695 212.702 148.768C212.702 146.991 212.165 145.606 211.09 144.614C210.057 143.622 208.548 143.126 206.564 143.126C204.621 143.126 203.113 143.663 202.038 144.738C201.005 145.771 200.405 147.094 200.24 148.706H191.746Z" fill="white"/>
<defs>
<filter id="filter0_d_3_754" x="0" y="0" width="323" height="323" filterUnits="userSpaceOnUse" color-interpolation-filters="sRGB">
<feFlood flood-opacity="0" result="BackgroundImageFix"/>
<feColorMatrix in="SourceAlpha" type="matrix" values="0 0 0 0 0 0 0 0 0 0 0 0 0 0 0 0 0 0 127 0" result="hardAlpha"/>
<feMorphology radius="2" operator="dilate" in="SourceAlpha" result="effect1_dropShadow_3_754"/>
<feOffset/>
<feGaussianBlur stdDeviation="7.5"/>
<feComposite in2="hardAlpha" operator="out"/>
<feColorMatrix type="matrix" values="0 0 0 0 0 0 0 0 0 0 0 0 0 0 0 0 0 0 0.25 0"/>
<feBlend mode="normal" in2="BackgroundImageFix" result="effect1_dropShadow_3_754"/>
<feBlend mode="normal" in="SourceGraphic" in2="effect1_dropShadow_3_754" result="shape"/>
</filter>
</defs>
</svg>
